# File created by Blade
# Date/Time:  Thu Jan 22 16:21:39 2015
# Frame Rate: 120.000 fps
#------------------------------------------------------
:FULLY-SPECIFIED
:DEGREES
1126
root -13.858015 34.481514 -1.594888 5.092802 23.361454 -1.215287
RightUpLeg -23.357630 -0.521173 21.301072
RightLeg 12.553192 -0.000000 -0.000000
RightFoot -9.994258 -28.655096 4.966843
RightToeBase 7.356300 -0.000000 -0.000000
LeftUpLeg 19.963739 -15.396197 -19.953668
LeftLeg -2.272649 -0.000000 0.000000
LeftFoot -10.081242 3.579631 -5.111708
LeftToeBase -2.950188 -0.000000 0.000000
Spine 10.287321 -13.694968 8.656396
RightShoulder -7.346777 -17.139272 -20.785805
RightArm 2.415942 32.462279 48.042913
RightForeArm 16.126309 -0.000000 20.031686
RightHand 6.886335 -0.000000 -19.739738
RightHandThumb1 -24.326973 -0.000000 -32.862282
LeftShoulder -27.413837 31.328723 19.230143
LeftArm 52.637344 -60.389890 -65.104432
LeftForeArm 27.553633 -0.000000 8.603389
LeftHand -19.322884 -0.000000 5.778837
LeftHandThumb1 -26.253704 0.000000 33.147579
Head -6.046449 -5.985964 18.512647
1127
root -13.909185 34.457350 -1.639541 5.022269 23.118539 -1.117915
RightUpLeg -23.371421 -0.541741 21.319087
RightLeg 12.689403 -0.000000 -0.000000
RightFoot -9.859422 -28.483357 4.764867
RightToeBase 7.379473 -0.000000 -0.000000
LeftUpLeg 20.088548 -15.257829 -20.033058
LeftLeg -2.535472 -0.000000 0.000000
LeftFoot -10.271549 3.500456 -5.170038
LeftToeBase -2.691277 -0.000000 0.000000
Spine 10.235519 -13.459636 8.825567
RightShoulder -7.365442 -17.175836 -20.723641
RightArm 2.296703 32.458372 48.071952
RightForeArm 16.302429 -0.000000 19.976843
RightHand 6.807244 -0.000000 -19.769583
RightHandThumb1 -24.326973 -0.000000 -32.862282
LeftShoulder -27.401645 31.215259 19.379281
LeftArm 52.502600 -60.599347 -65.078993
LeftForeArm 27.519007 -0.000000 8.622175
LeftHand -19.282911 -0.000000 5.658127
LeftHandThumb1 -26.253704 0.000000 33.147579
Head -6.003532 -5.921914 18.621639
1128
root -13.960803 34.434198 -1.686615 4.996787 22.937756 -1.027552
RightUpLeg -23.438274 -0.523711 21.324963
RightLeg 12.805805 -0.000000 -0.000000
RightFoot -9.739014 -28.353675 4.634937
RightToeBase 7.384627 -0.000000 -0.000000
LeftUpLeg 20.146968 -15.214515 -20.104397
LeftLeg -2.732099 -0.000000 0.000000
LeftFoot -10.539696 3.513361 -5.124505
LeftToeBase -2.198718 -0.000000 0.000000
Spine 10.126196 -13.313215 9.035941
RightShoulder -7.357138 -17.197906 -20.691936
RightArm 2.180558 32.408584 48.132233
RightForeArm 16.510224 0.000000 19.908779
RightHand 6.961746 0.000000 -20.041494
RightHandThumb1 -24.326973 -0.000000 -32.862282
LeftShoulder -27.341558 30.930163 19.606477
LeftArm 51.893343 -60.737867 -64.624767
LeftForeArm 27.631893 0.000000 8.653639
LeftHand -19.299870 -0.000000 5.816700
LeftHandThumb1 -26.253704 0.000000 33.147579
Head -5.966437 -5.837161 18.713524
1129
root -14.006270 34.412425 -1.735140 4.971618 22.788863 -0.905573
RightUpLeg -23.508441 -0.545602 21.300562
RightLeg 12.936531 -0.000000 -0.000000
RightFoot -9.630958 -28.274238 4.463409
RightToeBase 7.422794 -0.000000 -0.000000
LeftUpLeg 20.178763 -15.195546 -20.209736
LeftLeg -2.833929 -0.000000 0.000000
LeftFoot -10.790277 3.458529 -5.160987
LeftToeBase -2.014481 -0.000000 0.000000
Spine 10.012326 -13.171174 9.238793
RightShoulder -7.365236 -17.213306 -20.659817
RightArm 2.048199 32.401876 48.183650
RightForeArm 16.656552 -0.000000 19.832324
RightHand 6.877639 0.000000 -19.739196
RightHandThumb1 -24.326973 -0.000000 -32.862282
LeftShoulder -27.311480 30.889518 19.717088
LeftArm 51.792263 -60.963636 -64.580487
LeftForeArm 27.592842 -0.000000 8.629428
LeftHand -19.315329 -0.000000 5.877871
LeftHandThumb1 -26.253704 0.000000 33.147579
Head -5.916034 -5.737916 18.825863
1130
root -14.052471 34.390647 -1.785966 4.964309 22.677334 -0.820035
RightUpLeg -23.604628 -0.529832 21.293209
RightLeg 13.033197 -0.000000 -0.000000
RightFoot -9.516128 -28.228521 4.335910
RightToeBase 7.450959 -0.000000 -0.000000
LeftUpLeg 20.169559 -15.247102 -20.288503
LeftLeg -2.892137 -0.000000 0.000000
LeftFoot -11.083360 3.480595 -5.085905
LeftToeBase -1.795694 -0.000000 0.000000
Spine 9.883353 -13.094008 9.509283
RightShoulder -7.360784 -17.176076 -20.657653
RightArm 1.871710 32.326930 48.239005
RightForeArm 16.831737 -0.000000 19.814084
RightHand 6.992031 -0.000000 -19.822448
RightHandThumb1 -24.326973 -0.000000 -32.862282
LeftShoulder -27.360109 30.781225 19.793095
LeftArm 51.502382 -61.109558 -64.291485
LeftForeArm 27.450170 0.000000 8.576284
LeftHand -19.158846 -0.000000 5.698805
LeftHandThumb1 -26.253704 0.000000 33.147579
Head -5.906634 -5.612084 18.874482
1131
root -14.094848 34.370541 -1.838730 4.987441 22.571043 -0.694895
RightUpLeg -23.764580 -0.451852 21.220850
RightLeg 13.230061 -0.000000 -0.000000
RightFoot -9.454097 -28.232567 4.270361
RightToeBase 7.528857 -0.000000 -0.000000
LeftUpLeg 20.083165 -15.281534 -20.387472
LeftLeg -2.846264 -0.000000 0.000000
LeftFoot -11.349289 3.443961 -4.964783
LeftToeBase -1.788231 -0.000000 0.000000
Spine 9.734574 -13.018713 9.745390
RightShoulder -7.358720 -17.212068 -20.620876
RightArm 1.770681 32.253816 48.308929
RightForeArm 16.996794 0.000000 19.781416
RightHand 6.907544 0.000000 -19.686190
RightHandThumb1 -24.326973 -0.000000 -32.862282
LeftShoulder -27.397021 30.725602 19.885151
LeftArm 51.500401 -61.352237 -64.344315
LeftForeArm 27.494039 -0.000000 8.544428
LeftHand -19.144094 -0.000000 5.769574
LeftHandThumb1 -26.253704 0.000000 33.147579
Head -5.889571 -5.508298 18.938328
1132
root -14.135451 34.350168 -1.891675 4.981595 22.486597 -0.603536
RightUpLeg -23.890068 -0.352616 21.162774
RightLeg 13.380593 -0.000000 -0.000000
RightFoot -9.386979 -28.265676 4.232427
RightToeBase 7.577338 -0.000000 -0.000000
LeftUpLeg 20.002240 -15.378315 -20.491916
LeftLeg -2.747766 -0.000000 0.000000
LeftFoot -11.710310 3.508098 -4.843732
LeftToeBase -1.493128 -0.000000 0.000000
Spine 9.617481 -12.977847 10.036764
RightShoulder -7.401851 -17.214324 -20.565232
RightArm 1.714059 32.164868 48.369481
RightForeArm 17.223816 -0.000000 19.735371
RightHand 6.956269 -0.000000 -19.744336
RightHandThumb1 -24.326973 -0.000000 -32.862282
LeftShoulder -27.481960 30.700926 19.914801
LeftArm 51.495941 -61.553802 -64.306960
LeftForeArm 27.479540 -0.000000 8.441583
LeftHand -19.225230 -0.000000 5.974810
LeftHandThumb1 -26.253704 0.000000 33.147579
Head -5.893357 -5.321316 18.939756
1133
root -14.169770 34.330115 -1.947297 4.979763 22.391097 -0.515240
RightUpLeg -24.029243 -0.209304 21.084190
RightLeg 13.552915 -0.000000 -0.000000
RightFoot -9.325455 -28.336055 4.206904
RightToeBase 7.579203 -0.000000 -0.000000
LeftUpLeg 19.892477 -15.511118 -20.622132
LeftLeg -2.620318 -0.000000 0.000000
LeftFoot -12.021944 3.661807 -4.728141
LeftToeBase -1.456494 -0.000000 0.000000
Spine 9.494490 -12.917963 10.374388
RightShoulder -7.378535 -17.190729 -20.571874
RightArm 1.515901 32.182738 48.406633
RightForeArm 17.287638 -0.000000 19.772475
RightHand 6.876369 -0.000000 -19.575912
RightHandThumb1 -24.326973 -0.000000 -32.862282
LeftShoulder -27.510640 30.627445 19.980208
LeftArm 51.258456 -61.712273 -64.058714
LeftForeArm 27.328446 -0.000000 8.347674
LeftHand -19.060812 -0.000000 6.333304
LeftHandThumb1 -26.253704 0.000000 33.147579
Head -5.927114 -5.190747 18.930158
1134
root -14.199579 34.309704 -2.000309 4.934281 22.301027 -0.437380
RightUpLeg -24.130091 -0.078242 21.005891
RightLeg 13.738953 -0.000000 -0.000000
RightFoot -9.293278 -28.398898 4.189044
RightToeBase 7.641792 -0.000000 -0.000000
LeftUpLeg 19.826613 -15.534307 -20.744539
LeftLeg -2.521859 -0.000000 0.000000
LeftFoot -12.316182 3.784271 -4.616225
LeftToeBase -1.308499 -0.000000 0.000000
Spine 9.419449 -12.840900 10.741745
RightShoulder -7.372552 -17.210468 -20.578448
RightArm 1.345580 32.244831 48.464081
RightForeArm 17.311962 -0.000000 19.791998
RightHand 6.753153 0.000000 -19.492776
RightHandThumb1 -24.326973 -0.000000 -32.862282
LeftShoulder -27.531539 30.605865 20.031286
LeftArm 51.160547 -61.889450 -63.946798
LeftForeArm 27.306168 0.000000 8.248151
LeftHand -19.060830 -0.000000 6.417934
LeftHandThumb1 -26.253704 0.000000 33.147579
Head -5.998740 -5.017034 18.903028
1135
root -14.225191 34.290727 -2.053063 4.873836 22.214122 -0.356061
RightUpLeg -24.223658 0.040266 20.918079
RightLeg 13.940933 -0.000000 -0.000000
RightFoot -9.274232 -28.441077 4.199789
RightToeBase 7.717334 -0.000000 -0.000000
LeftUpLeg 19.789298 -15.533031 -20.888994
LeftLeg -2.446466 -0.000000 0.000000
LeftFoot -12.529631 4.037592 -4.357333
LeftToeBase -1.240657 -0.000000 0.000000
Spine 9.396148 -12.832895 11.108642
RightShoulder -7.348551 -17.167034 -20.589801
RightArm 1.194675 32.326029 48.531388
RightForeArm 17.283344 -0.000000 19.814766
RightHand 6.798554 -0.000000 -19.313259
RightHandThumb1 -24.326973 -0.000000 -32.862282
LeftShoulder -27.625565 30.542869 20.032209
LeftArm 51.003310 -62.089946 -63.744453
LeftForeArm 27.321845 -0.000000 8.136151
LeftHand -19.138370 0.000000 6.472891
LeftHandThumb1 -26.253704 0.000000 33.147579
Head -6.121450 -4.735497 18.897625
